# xmcd
#
# Track frame offsets:
#	150
#	14374
#	27017
#	43373
#	58837
#	67697
#	78055
#	89130
#	99962
#	108453
#	121667
#	133035
#	144389
#	155200
#	165377
#	179594
#	190140
#	205465
#	216882
#	227665
#	240412
#	251585
#	264736
#	277156
#	289409
#	302282
#	316241
#	328689
#
# Disc length: 4575 seconds
#
# Revision: 0
# Processed by: cddbd v1.5.2PL0 Copyright (c) Steve Scherf et al.
# Submitted via: EZCDAudioConverter 1.0.8.1
#
DISCID=9511dd1c
DTITLE=B. B. King - The Vintage Years - 2 CD
DYEAR=2002
DGENRE=Blues
TTITLE0=B.B. Boogie
TTITLE1=Mistreated Woman
TTITLE2=The Other Night Blues
TTITLE3=Walkin' And Cryin'
TTITLE4=My Baby's Gone
TTITLE5=Don't You Want A Man Like Me
TTITLE6=She's Dynamite
TTITLE7=B.B. Blues
TTITLE8=A New Way Of Driving
TTITLE9=Questionnaire Blues
TTITLE10=Hard Workin' Woman
TTITLE11=She's A Mean Woman
TTITLE12=Pray For You
TTITLE13=That Ain't The Way To Do It
TTITLE14=She Don't Move Me No More
TTITLE15=Fine Lookin' Woman
TTITLE16=My Own Fault, Darlin'
TTITLE17=Shake It Up And Go
TTITLE18=Gotta Find My Baby
TTITLE19=Some Day, Somewhere
TTITLE20=You Didn't Want Me
TTITLE21=Story From My Heart And Soul
TTITLE22=Boogie Woogie Woman
TTITLE23=Highway Bound
TTITLE24=Neighborhood Affair
TTITLE25=Why Did You Leave Me
TTITLE26=Praying To The Lord
TTITLE27=Please Help Me
EXTD=
EXTT0=
EXTT1=
EXTT2=
EXTT3=
EXTT4=
EXTT5=
EXTT6=
EXTT7=
EXTT8=
EXTT9=
EXTT10=
EXTT11=
EXTT12=
EXTT13=
EXTT14=
EXTT15=
EXTT16=
EXTT17=
EXTT18=
EXTT19=
EXTT20=
EXTT21=
EXTT22=
EXTT23=
EXTT24=
EXTT25=
EXTT26=
EXTT27=
PLAYORDER=
